<?xml version="1.0" encoding="UTF-8"?>
<!DOCTYPE svg PUBLIC "-//W3C//DTD SVG 1.1//EN" "http://www.w3.org/Graphics/SVG/1.1/DTD/svg11.dtd">
<svg xmlns="http://www.w3.org/2000/svg" version="1.1" width="512px" height="512px" style="shape-rendering:geometricPrecision; text-rendering:geometricPrecision; image-rendering:optimizeQuality; fill-rule:evenodd; clip-rule:evenodd" xmlns:xlink="http://www.w3.org/1999/xlink">
<g><path style="opacity:0.988" fill="#e53a34" d="M 136.5,185.5 C 124.811,187.965 113.144,187.965 101.5,185.5C 64.8513,172.989 48.018,147.322 51,108.5C 58.9408,71.892 81.6075,52.5587 119,50.5C 156.387,52.5522 179.053,71.8855 187,108.5C 189.949,147.346 173.116,173.013 136.5,185.5 Z"/></g>
<g><path style="opacity:0.987" fill="#e53a34" d="M 409.5,185.5 C 403.508,186.166 397.508,186.832 391.5,187.5C 385.825,186.832 380.159,186.165 374.5,185.5C 337.884,173.013 321.051,147.346 324,108.5C 331.947,71.8855 354.613,52.5522 392,50.5C 429.387,52.5522 452.053,71.8855 460,108.5C 463.451,141.102 450.951,165.269 422.5,181C 418.256,182.803 413.922,184.303 409.5,185.5 Z"/></g>
<g><path style="opacity:1" fill="#f8cad0" d="M 148.5,102.5 C 124.874,94.7316 108.707,102.398 100,125.5C 98.8707,133.415 99.704,141.082 102.5,148.5C 93.9623,144.452 88.4623,137.785 86,128.5C 82.4692,103.229 93.3026,88.5628 118.5,84.5C 132.041,84.9245 142.041,90.9245 148.5,102.5 Z"/></g>
<g><path style="opacity:1" fill="#f8cad0" d="M 421.5,102.5 C 398.123,95.0573 381.956,102.724 373,125.5C 372.029,133.381 372.862,141.048 375.5,148.5C 362.275,140.717 356.442,129.051 358,113.5C 364.233,91.2982 378.733,82.1315 401.5,86C 410.785,88.4623 417.452,93.9623 421.5,102.5 Z"/></g>
<g><path style="opacity:1" fill="#fbe9ec" d="M 148.5,102.5 C 156.469,119.796 153.136,134.629 138.5,147C 126.62,153.662 114.62,154.162 102.5,148.5C 99.704,141.082 98.8707,133.415 100,125.5C 108.707,102.398 124.874,94.7316 148.5,102.5 Z"/></g>
<g><path style="opacity:1" fill="#fbe9ec" d="M 421.5,102.5 C 429.859,121.564 425.526,137.064 408.5,149C 397.275,153.816 386.275,153.65 375.5,148.5C 372.862,141.048 372.029,133.381 373,125.5C 381.956,102.724 398.123,95.0573 421.5,102.5 Z"/></g>
<g><path style="opacity:1" fill="#f68e1d" d="M 101.5,185.5 C 113.144,187.965 124.811,187.965 136.5,185.5C 136.5,192.5 136.5,199.5 136.5,206.5C 124.826,207.781 113.159,207.781 101.5,206.5C 101.5,199.5 101.5,192.5 101.5,185.5 Z"/></g>
<g><path style="opacity:0.962" fill="#febf0e" d="M 374.5,185.5 C 380.159,186.165 385.825,186.832 391.5,187.5C 397.508,186.832 403.508,186.166 409.5,185.5C 409.5,191.833 409.5,198.167 409.5,204.5C 397.833,204.5 386.167,204.5 374.5,204.5C 374.5,198.167 374.5,191.833 374.5,185.5 Z"/></g>
<g><path style="opacity:0.977" fill="#ffc00d" d="M 101.5,206.5 C 113.159,207.781 124.826,207.781 136.5,206.5C 136.333,252.835 136.5,299.168 137,345.5C 140.5,361 150,370.5 165.5,374C 186.833,374.667 208.167,374.667 229.5,374C 220.833,365.333 212.167,356.667 203.5,348C 211.681,339.652 220.014,331.486 228.5,323.5C 249.546,343.379 269.713,364.045 289,385.5C 291.078,391.455 290.412,397.121 287,402.5C 267.653,422.014 248.153,441.347 228.5,460.5C 220.014,452.514 211.681,444.348 203.5,436C 212.167,427.333 220.833,418.667 229.5,410C 206.833,409.667 184.167,409.333 161.5,409C 128.124,403.291 108.291,383.791 102,350.5C 101.5,302.501 101.333,254.501 101.5,206.5 Z"/></g>
<g><path style="opacity:0.975" fill="#ffc00e" d="M 374.5,237.5 C 386.167,237.5 397.833,237.5 409.5,237.5C 409.5,249.5 409.5,261.5 409.5,273.5C 397.833,273.5 386.167,273.5 374.5,273.5C 374.5,261.5 374.5,249.5 374.5,237.5 Z"/></g>
<g><path style="opacity:0.962" fill="#febf0e" d="M 409.5,325.5 C 403.508,324.834 397.508,324.168 391.5,323.5C 385.839,324.277 380.172,324.944 374.5,325.5C 374.5,319.167 374.5,312.833 374.5,306.5C 386.167,306.5 397.833,306.5 409.5,306.5C 409.5,312.833 409.5,319.167 409.5,325.5 Z"/></g>
<g><path style="opacity:0.99" fill="#7cb342" d="M 409.5,325.5 C 435.626,333.126 452.126,350.126 459,376.5C 465.038,413.597 451.205,440.097 417.5,456C 387.121,466.03 360.954,459.53 339,436.5C 320.275,410.297 318.608,382.964 334,354.5C 343.723,339.618 357.223,329.951 374.5,325.5C 380.172,324.944 385.839,324.277 391.5,323.5C 397.508,324.168 403.508,324.834 409.5,325.5 Z"/></g>
<g><path style="opacity:1" fill="#daeac5" d="M 421.5,375.5 C 398.195,368.237 382.028,375.903 373,398.5C 371.871,406.415 372.704,414.082 375.5,421.5C 366.962,417.452 361.462,410.785 359,401.5C 355.295,382.411 362.128,368.577 379.5,360C 394.922,355.042 408.089,358.542 419,370.5C 420.094,372.078 420.928,373.745 421.5,375.5 Z"/></g>
<g><path style="opacity:1" fill="#f0f6e8" d="M 421.5,375.5 C 423.129,377.858 424.295,380.524 425,383.5C 427.167,413.333 413.333,427.167 383.5,425C 380.626,424.058 377.96,422.891 375.5,421.5C 372.704,414.082 371.871,406.415 373,398.5C 382.028,375.903 398.195,368.237 421.5,375.5 Z"/></g>
</svg>
